<svg width="6.223mm" height="8.0437mm" version="1.1" viewBox="0 0 6.223 8.0437" xmlns="http://www.w3.org/2000/svg" xmlns:xlink="http://www.w3.org/1999/xlink">
 <g transform="translate(-9.4933 -18.874)">
  <path d="m9.4953 25.55h6.2167v1.3671h-6.2167z" fill="#0f4b80" style="paint-order:normal"/>
  <g>
   <g transform="matrix(.26458 0 0 .26458 1.5314 -.67968)" aria-label="arkne">
    <path d="m53.612 96.662v-22.16h-4.16v3.12h-0.08c-1.6-2.44-4.44-3.72-7.52-3.72-7.96 0-11.76 6.36-11.76 11.76 0 5.84 4.28 11.56 11.76 11.56 3 0 5.92-1.28 7.52-4h0.08v3.44zm-4.08-11.04c0 4.24-3.36 7.8-7.72 7.8-4.4 0-7.56-3.8-7.56-7.8 0-3.48 2.48-7.92 7.6-7.92 4.28 0 7.68 3.2 7.68 7.92z" style="font-feature-settings:normal;font-variant-caps:normal;font-variant-ligatures:normal;font-variant-numeric:normal"/>
    <path d="m89.26 96.662v-12.12c0-3.16 1.12-4.84 2.44-5.56 1-0.52 2.36-0.8 3-0.8v-4.28c-1.04 0.04-3.88 0.12-5.64 2.6h-0.08v-2h-3.88v22.16z" style="font-feature-settings:normal;font-variant-caps:normal;font-variant-ligatures:normal;font-variant-numeric:normal"/>
    <path d="m85.1 74.502-7.88 10.68h-0.08v-18.12h-4.16v29.6h4.16v-11.48h0.08l8.88 11.48h5.2l-9.32-11.72 8.04-10.44z" style="font-feature-settings:normal;font-variant-caps:normal;font-variant-ligatures:normal;font-variant-numeric:normal"/>
    <path d="m114.1 96.662v-13.12c-0.04-2.48-0.52-4.24-1.4-5.68-1.6-2.48-4.4-3.96-7.84-3.96-0.88 0-4.24 0-6.48 2.96h-0.08v-2.36h-3.88v22.16h4.16v-12.08c0-4.44 2.36-6.88 5.84-6.88 5.52 0 5.52 5.2 5.52 6.92v12.04z" style="font-feature-settings:normal;font-variant-caps:normal;font-variant-ligatures:normal;font-variant-numeric:normal"/>
    <path d="m140.78 87.382c0.04-0.28 0.12-1.4 0.12-2.12-0.04-6.48-5.28-11.36-11.28-11.36-6.24 0-11.36 5-11.36 11.64 0 6.28 5 11.68 11.28 11.68 3.44 0 8.52-1.8 10.64-7.52h-4.16c-1 1.92-3.24 3.72-6.32 3.72-2.8 0-6.24-1.76-7.28-6.04zm-18.36-3.2c0.2-3.24 3.16-6.48 7.16-6.48s6.96 3.24 7.16 6.48z" style="font-feature-settings:normal;font-variant-caps:normal;font-variant-ligatures:normal;font-variant-numeric:normal"/>
   </g>
   <g stroke-width=".2225" style="font-feature-settings:normal;font-variant-caps:normal;font-variant-ligatures:normal;font-variant-numeric:normal" aria-label="GROUP">
    <path d="m33.523 25.897c-0.12816-0.23674-0.36668-0.356-0.59097-0.356-0.37914 0-0.67285 0.30794-0.67285 0.68709 0 0.36846 0.29014 0.67997 0.67463 0.67997 0.3204 0 0.67285-0.23852 0.67997-0.67997h-0.83305v0.17622h0.61411c-0.12638 0.32396-0.41652 0.32752-0.4539 0.32752-0.2492 0-0.4895-0.2136-0.4895-0.50374 0-0.2759 0.2136-0.51087 0.48772-0.51087 0.19402 0 0.30438 0.11926 0.35956 0.17978z" style="font-feature-settings:normal;font-variant-caps:normal;font-variant-ligatures:normal;font-variant-numeric:normal"/>
    <path d="m34.764 26.883-0.36846-0.49129c0.08544 0 0.37736-0.05518 0.37736-0.40406 0-0.11036-0.03738-0.2314-0.12104-0.3115-0.06942-0.06586-0.16554-0.11036-0.35066-0.11036h-0.40762v1.3172h0.19224v-0.61055h0.0036l0.43432 0.61055zm-0.67819-1.141h0.20292c0.21716 0 0.29192 0.13528 0.29192 0.24564 0 0.25454-0.2848 0.2581-0.36312 0.2581h-0.13172z" style="font-feature-settings:normal;font-variant-caps:normal;font-variant-ligatures:normal;font-variant-numeric:normal"/>
    <path d="m36.381 26.228c0-0.37558-0.2937-0.68709-0.68531-0.68709-0.40228 0-0.68531 0.32574-0.68531 0.68353 0 0.36134 0.29192 0.68353 0.68531 0.68353 0.3916 0 0.68531-0.3204 0.68531-0.67997zm-0.19224 0.0018c0 0.20648-0.15308 0.50196-0.49307 0.50196-0.3382 0-0.49306-0.29192-0.49306-0.50731 0-0.21004 0.15308-0.5073 0.49306-0.5073 0.32752 0 0.49307 0.27946 0.49307 0.51265z" style="font-feature-settings:normal;font-variant-caps:normal;font-variant-ligatures:normal;font-variant-numeric:normal"/>
    <path d="m37.569 25.566h-0.19224v0.88645c0 0.24386-0.178 0.27946-0.2492 0.27946-0.0712 0-0.2492-0.0356-0.2492-0.27946v-0.88645h-0.19224v0.89179c0 0.14952 0.04984 0.2581 0.1335 0.3382 0.08188 0.06764 0.1869 0.11214 0.30794 0.11214 0.12104 0 0.22606-0.0445 0.30794-0.11214 0.08366-0.0801 0.1335-0.18868 0.1335-0.3382z" style="font-feature-settings:normal;font-variant-caps:normal;font-variant-ligatures:normal;font-variant-numeric:normal"/>
    <path d="m38.117 26.363h0.18868c0.31506 0 0.46458-0.16376 0.46458-0.39872 0-0.23496-0.14952-0.39872-0.46458-0.39872h-0.38092v1.3172h0.19224zm0-0.62123h0.18868c0.21894 0 0.27234 0.1246 0.27234 0.2225 0 0.0979-0.0534 0.2225-0.27234 0.2225h-0.18868z" style="font-feature-settings:normal;font-variant-caps:normal;font-variant-ligatures:normal;font-variant-numeric:normal"/>
   </g>
  </g>
 </g>
</svg>
